<svg width="38" height="37" viewBox="0 0 38 37" fill="#42382C" xmlns="http://www.w3.org/2000/svg">
<path d="M33.1291 10.6892C32.8575 10.2321 32.4687 9.8511 32.0004 9.58348C31.5322 9.31586 31.0006 9.17072 30.4574 9.16222H10.341L9.42947 5.7112C9.33738 5.37807 9.13191 5.08504 8.84653 4.87986C8.56115 4.67467 8.21268 4.56941 7.85788 4.58122H4.71469C4.29788 4.58122 3.89814 4.7421 3.60341 5.02847C3.30867 5.31483 3.1431 5.70323 3.1431 6.10822C3.1431 6.51321 3.30867 6.9016 3.60341 7.18797C3.89814 7.47434 4.29788 7.63522 4.71469 7.63522H6.66347L11.0011 23.3023C11.0932 23.6354 11.2986 23.9284 11.584 24.1336C11.8694 24.3388 12.2179 24.444 12.5727 24.4322H26.717C27.0072 24.4314 27.2915 24.3525 27.5384 24.2042C27.7853 24.056 27.9851 23.8442 28.1157 23.5924L33.2705 13.5753C33.494 13.1202 33.598 12.6185 33.5733 12.115C33.5486 11.6114 33.396 11.1216 33.1291 10.6892Z" fill="#42382C"/>
<path d="M11.7865 32.0668C13.0884 32.0668 14.1439 31.0414 14.1439 29.7763C14.1439 28.5113 13.0884 27.4858 11.7865 27.4858C10.4845 27.4858 9.42911 28.5113 9.42911 29.7763C9.42911 31.0414 10.4845 32.0668 11.7865 32.0668Z" fill="#42382C"/>
<path d="M27.5024 32.0668C28.8044 32.0668 29.8598 31.0414 29.8598 29.7763C29.8598 28.5113 28.8044 27.4858 27.5024 27.4858C26.2005 27.4858 25.145 28.5113 25.145 29.7763C25.145 31.0414 26.2005 32.0668 27.5024 32.0668Z" fill="#42382C"/>
</svg>
