<svg width="40" height="39" viewBox="0 0 40 39" fill="#42382C" xmlns="http://www.w3.org/2000/svg">
<path d="M33.9631 30.7367L28.3874 25.3351C30.1863 23.1083 31.1625 20.3584 31.1588 17.5275C31.1588 15.0063 30.3894 12.5418 28.9478 10.4455C27.5062 8.34929 25.4573 6.71546 23.06 5.75066C20.6628 4.78586 18.0249 4.53342 15.48 5.02527C12.9351 5.51712 10.5974 6.73117 8.76263 8.51389C6.92785 10.2966 5.67835 12.5679 5.17214 15.0406C4.66592 17.5133 4.92573 20.0764 5.9187 22.4056C6.91168 24.7348 8.59323 26.7257 10.7507 28.1263C12.9082 29.527 15.4447 30.2746 18.0394 30.2746C20.953 30.2781 23.7832 29.3297 26.0751 27.5818L31.6344 32.9993C31.7869 33.1487 31.9682 33.2672 32.1681 33.3481C32.3679 33.429 32.5823 33.4706 32.7988 33.4706C33.0152 33.4706 33.2296 33.429 33.4294 33.3481C33.6293 33.2672 33.8106 33.1487 33.9631 32.9993C34.1168 32.8512 34.2388 32.675 34.3221 32.4808C34.4053 32.2866 34.4482 32.0784 34.4482 31.868C34.4482 31.6577 34.4053 31.4494 34.3221 31.2552C34.2388 31.0611 34.1168 30.8848 33.9631 30.7367ZM8.1999 17.5275C8.1999 15.6366 8.77698 13.7882 9.85816 12.216C10.9393 10.6438 12.4761 9.41847 14.274 8.69486C16.072 7.97126 18.0504 7.78194 19.959 8.15083C21.8677 8.51971 23.621 9.43025 24.997 10.7673C26.3731 12.1043 27.3103 13.8078 27.6899 15.6623C28.0696 17.5169 27.8747 19.4391 27.13 21.1861C26.3853 22.933 25.1241 24.4261 23.506 25.4766C21.8879 26.5271 19.9855 27.0878 18.0394 27.0878C15.4298 27.0878 12.9271 26.0806 11.0818 24.2877C9.23656 22.4948 8.1999 20.063 8.1999 17.5275Z" fill="#42382C"/>
</svg>
